<mxfile host="app.diagrams.net" agent="Mozilla/5.0 (Windows NT 10.0; Win64; x64) AppleWebKit/537.36 (KHTML, like Gecko) Chrome/132.0.0.0 Safari/537.36" version="26.0.10">
  <diagram name="Página-1" id="48M1OholPXDdKoVH5Szc">
    <mxGraphModel dx="1419" dy="665" grid="0" gridSize="10" guides="1" tooltips="1" connect="1" arrows="1" fold="1" page="0" pageScale="1" pageWidth="827" pageHeight="1169" math="0" shadow="0">
      <root>
        <mxCell id="0" />
        <mxCell id="1" parent="0" />
        <mxCell id="_KhCzG9Bb4c7q6jr102G-16" value="" style="edgeStyle=none;curved=1;rounded=0;orthogonalLoop=1;jettySize=auto;html=1;fontFamily=Helvetica;fontSize=12;fontColor=default;startSize=8;endSize=8;exitX=0.145;exitY=0;exitDx=0;exitDy=4.35;exitPerimeter=0;entryX=0.5;entryY=0;entryDx=0;entryDy=0;" edge="1" parent="1" source="_KhCzG9Bb4c7q6jr102G-1" target="_KhCzG9Bb4c7q6jr102G-15">
          <mxGeometry relative="1" as="geometry" />
        </mxCell>
        <mxCell id="_KhCzG9Bb4c7q6jr102G-24" value="&lt;span style=&quot;font-size: 15px;&quot;&gt;Resultado&lt;/span&gt;" style="edgeLabel;html=1;align=center;verticalAlign=middle;resizable=0;points=[];fontSize=12;rounded=1;strokeColor=default;fontFamily=Helvetica;fontColor=default;fillColor=default;" vertex="1" connectable="0" parent="_KhCzG9Bb4c7q6jr102G-16">
          <mxGeometry x="-0.1143" y="1" relative="1" as="geometry">
            <mxPoint as="offset" />
          </mxGeometry>
        </mxCell>
        <mxCell id="_KhCzG9Bb4c7q6jr102G-1" value="&lt;font style=&quot;vertical-align: inherit;&quot;&gt;&lt;font style=&quot;vertical-align: inherit;&quot;&gt;&lt;font style=&quot;vertical-align: inherit;&quot;&gt;&lt;font style=&quot;vertical-align: inherit;&quot;&gt;&lt;font style=&quot;vertical-align: inherit;&quot;&gt;&lt;font style=&quot;vertical-align: inherit;&quot;&gt;base de datos&lt;/font&gt;&lt;/font&gt;&lt;/font&gt;&lt;/font&gt;&lt;/font&gt;&lt;/font&gt;" style="shape=cylinder3;whiteSpace=wrap;html=1;boundedLbl=1;backgroundOutline=1;size=15;fillColor=light-dark(#66FF66,#66FF66);" vertex="1" parent="1">
          <mxGeometry x="64" y="565" width="109" height="170" as="geometry" />
        </mxCell>
        <mxCell id="_KhCzG9Bb4c7q6jr102G-4" value="" style="edgeStyle=none;curved=1;rounded=0;orthogonalLoop=1;jettySize=auto;html=1;fontSize=12;startSize=8;endSize=8;entryX=0.5;entryY=0;entryDx=0;entryDy=0;" edge="1" parent="1" source="_KhCzG9Bb4c7q6jr102G-2" target="_KhCzG9Bb4c7q6jr102G-8">
          <mxGeometry relative="1" as="geometry">
            <mxPoint x="-240" y="198" as="targetPoint" />
          </mxGeometry>
        </mxCell>
        <mxCell id="_KhCzG9Bb4c7q6jr102G-2" value="Inicio" style="rounded=1;whiteSpace=wrap;html=1;" vertex="1" parent="1">
          <mxGeometry x="-302" y="82" width="120" height="29" as="geometry" />
        </mxCell>
        <mxCell id="_KhCzG9Bb4c7q6jr102G-5" style="edgeStyle=none;curved=1;rounded=0;orthogonalLoop=1;jettySize=auto;html=1;fontSize=12;startSize=8;endSize=8;exitX=0.5;exitY=1;exitDx=0;exitDy=0;entryX=0.5;entryY=0;entryDx=0;entryDy=0;" edge="1" parent="1" source="_KhCzG9Bb4c7q6jr102G-8" target="_KhCzG9Bb4c7q6jr102G-9">
          <mxGeometry relative="1" as="geometry">
            <mxPoint x="-184.78346456692907" y="337" as="targetPoint" />
            <mxPoint x="-223.6092715231789" y="258" as="sourcePoint" />
          </mxGeometry>
        </mxCell>
        <mxCell id="_KhCzG9Bb4c7q6jr102G-28" value="" style="edgeStyle=none;curved=1;rounded=0;orthogonalLoop=1;jettySize=auto;html=1;fontFamily=Helvetica;fontSize=12;fontColor=default;startSize=8;endSize=8;" edge="1" parent="1" source="_KhCzG9Bb4c7q6jr102G-8" target="_KhCzG9Bb4c7q6jr102G-27">
          <mxGeometry relative="1" as="geometry" />
        </mxCell>
        <mxCell id="_KhCzG9Bb4c7q6jr102G-8" value="Ingresar correo y contraseña" style="shape=process;whiteSpace=wrap;html=1;backgroundOutline=1;rounded=1;strokeColor=default;align=center;verticalAlign=middle;fontFamily=Helvetica;fontSize=12;fontColor=default;fillColor=default;" vertex="1" parent="1">
          <mxGeometry x="-300" y="192" width="120" height="60" as="geometry" />
        </mxCell>
        <mxCell id="_KhCzG9Bb4c7q6jr102G-12" value="" style="edgeStyle=none;curved=1;rounded=0;orthogonalLoop=1;jettySize=auto;html=1;fontFamily=Helvetica;fontSize=12;fontColor=default;startSize=8;endSize=8;" edge="1" parent="1" source="_KhCzG9Bb4c7q6jr102G-9" target="_KhCzG9Bb4c7q6jr102G-11">
          <mxGeometry relative="1" as="geometry" />
        </mxCell>
        <mxCell id="_KhCzG9Bb4c7q6jr102G-9" value="validador de entrada&lt;div&gt;(verificar campos vacíos, caracteres especiales y prevención de inyecciones sql/xss)&lt;/div&gt;" style="shape=process;whiteSpace=wrap;html=1;backgroundOutline=1;rounded=1;strokeColor=default;align=center;verticalAlign=middle;fontFamily=Helvetica;fontSize=12;fontColor=default;fillColor=default;" vertex="1" parent="1">
          <mxGeometry x="-269" y="302" width="195" height="93" as="geometry" />
        </mxCell>
        <mxCell id="_KhCzG9Bb4c7q6jr102G-11" value="Consulta en base de datos de credenciales (correo y contraseña)" style="shape=process;whiteSpace=wrap;html=1;backgroundOutline=1;rounded=1;strokeColor=default;align=center;verticalAlign=middle;fontFamily=Helvetica;fontSize=12;fontColor=default;fillColor=default;" vertex="1" parent="1">
          <mxGeometry x="-262" y="426" width="195" height="93" as="geometry" />
        </mxCell>
        <mxCell id="_KhCzG9Bb4c7q6jr102G-13" style="edgeStyle=none;curved=1;rounded=0;orthogonalLoop=1;jettySize=auto;html=1;exitX=1;exitY=0.5;exitDx=0;exitDy=0;entryX=0.5;entryY=0;entryDx=0;entryDy=0;entryPerimeter=0;fontFamily=Helvetica;fontSize=12;fontColor=default;startSize=8;endSize=8;" edge="1" parent="1" source="_KhCzG9Bb4c7q6jr102G-11" target="_KhCzG9Bb4c7q6jr102G-1">
          <mxGeometry relative="1" as="geometry">
            <Array as="points">
              <mxPoint x="68" y="447" />
            </Array>
          </mxGeometry>
        </mxCell>
        <mxCell id="_KhCzG9Bb4c7q6jr102G-14" value="" style="edgeLabel;html=1;align=center;verticalAlign=middle;resizable=0;points=[];fontSize=12;rounded=1;strokeColor=default;fontFamily=Helvetica;fontColor=default;fillColor=default;" vertex="1" connectable="0" parent="_KhCzG9Bb4c7q6jr102G-13">
          <mxGeometry x="-0.1768" y="-16" relative="1" as="geometry">
            <mxPoint as="offset" />
          </mxGeometry>
        </mxCell>
        <mxCell id="_KhCzG9Bb4c7q6jr102G-17" value="" style="edgeLabel;html=1;align=center;verticalAlign=middle;resizable=0;points=[];fontSize=12;rounded=1;strokeColor=default;fontFamily=Helvetica;fontColor=default;fillColor=default;" vertex="1" connectable="0" parent="_KhCzG9Bb4c7q6jr102G-13">
          <mxGeometry x="0.6208" y="-3" relative="1" as="geometry">
            <mxPoint as="offset" />
          </mxGeometry>
        </mxCell>
        <mxCell id="_KhCzG9Bb4c7q6jr102G-18" value="&lt;span style=&quot;font-size: 15px;&quot;&gt;Consulta credenciales&lt;/span&gt;" style="edgeLabel;html=1;align=center;verticalAlign=middle;resizable=0;points=[];fontSize=12;rounded=1;strokeColor=default;fontFamily=Helvetica;fontColor=default;fillColor=default;" vertex="1" connectable="0" parent="_KhCzG9Bb4c7q6jr102G-13">
          <mxGeometry x="0.2594" y="-28" relative="1" as="geometry">
            <mxPoint as="offset" />
          </mxGeometry>
        </mxCell>
        <mxCell id="_KhCzG9Bb4c7q6jr102G-20" value="" style="edgeStyle=none;curved=1;rounded=0;orthogonalLoop=1;jettySize=auto;html=1;fontFamily=Helvetica;fontSize=12;fontColor=default;startSize=8;endSize=8;" edge="1" parent="1" source="_KhCzG9Bb4c7q6jr102G-15" target="_KhCzG9Bb4c7q6jr102G-19">
          <mxGeometry relative="1" as="geometry" />
        </mxCell>
        <mxCell id="_KhCzG9Bb4c7q6jr102G-23" value="" style="edgeStyle=none;curved=1;rounded=0;orthogonalLoop=1;jettySize=auto;html=1;fontFamily=Helvetica;fontSize=12;fontColor=default;startSize=8;endSize=8;" edge="1" parent="1" source="_KhCzG9Bb4c7q6jr102G-15" target="_KhCzG9Bb4c7q6jr102G-21">
          <mxGeometry relative="1" as="geometry" />
        </mxCell>
        <mxCell id="_KhCzG9Bb4c7q6jr102G-15" value="¿Credenciales correctas?" style="rhombus;whiteSpace=wrap;html=1;fillColor=light-dark(#FFFFFF,#66FF66);" vertex="1" parent="1">
          <mxGeometry x="-229" y="581" width="115" height="127" as="geometry" />
        </mxCell>
        <mxCell id="_KhCzG9Bb4c7q6jr102G-26" value="" style="edgeStyle=none;curved=1;rounded=0;orthogonalLoop=1;jettySize=auto;html=1;fontFamily=Helvetica;fontSize=12;fontColor=default;startSize=8;endSize=8;" edge="1" parent="1" source="_KhCzG9Bb4c7q6jr102G-19" target="_KhCzG9Bb4c7q6jr102G-25">
          <mxGeometry relative="1" as="geometry" />
        </mxCell>
        <mxCell id="_KhCzG9Bb4c7q6jr102G-19" value="No" style="whiteSpace=wrap;html=1;fillColor=light-dark(#FFFFFF,#66FF66);" vertex="1" parent="1">
          <mxGeometry x="-340" y="626" width="60" height="32.5" as="geometry" />
        </mxCell>
        <mxCell id="_KhCzG9Bb4c7q6jr102G-21" value="Si" style="whiteSpace=wrap;html=1;fillColor=light-dark(#FFFFFF,#66FF66);" vertex="1" parent="1">
          <mxGeometry x="-64" y="628.25" width="60" height="32.5" as="geometry" />
        </mxCell>
        <mxCell id="_KhCzG9Bb4c7q6jr102G-25" value="Mensaje (credenciales incorrectas)" style="whiteSpace=wrap;html=1;fillColor=light-dark(#FFFFFF,#66FF66);direction=west;" vertex="1" parent="1">
          <mxGeometry x="-393" y="532.5" width="115" height="47.5" as="geometry" />
        </mxCell>
        <mxCell id="_KhCzG9Bb4c7q6jr102G-27" value="olvide mis credenciales" style="shape=process;whiteSpace=wrap;html=1;backgroundOutline=1;rounded=1;strokeColor=default;align=center;verticalAlign=middle;fontFamily=Helvetica;fontSize=12;fontColor=default;fillColor=default;" vertex="1" parent="1">
          <mxGeometry x="-60" y="192" width="120" height="60" as="geometry" />
        </mxCell>
      </root>
    </mxGraphModel>
  </diagram>
</mxfile>
